<svg xmlns="http://www.w3.org/2000/svg" xmlns:xlink="http://www.w3.org/1999/xlink" width="500" zoomAndPan="magnify" viewBox="0 0 375 374.999991" height="500" preserveAspectRatio="xMidYMid meet" version="1.0"><defs><g/></defs><rect x="-37.5" width="450" fill="#ffffff" y="-37.499999" height="449.999989" fill-opacity="1"/><rect x="-37.5" width="450" fill="#000000" y="-37.499999" height="449.999989" fill-opacity="1"/><g fill="#ffffff" fill-opacity="1"><g transform="translate(104.054191, 251.960516)"><g><path d="M 227.65625 40.828125 C 220.925781 42.585938 214.957031 43.46875 209.75 43.46875 C 204.550781 43.46875 199.953125 43.144531 195.953125 42.5 C 191.953125 41.863281 187.671875 40.625 183.109375 38.78125 C 178.546875 36.9375 174.257812 34.8125 170.25 32.40625 C 166.25 30.007812 162.25 27.050781 158.25 23.53125 C 150.882812 17.613281 144.203125 11.210938 138.203125 4.328125 C 132.203125 -2.554688 120.632812 -15.484375 103.5 -34.453125 C 86.375 -53.429688 75.007812 -66.039062 69.40625 -72.28125 C 63.800781 -78.519531 59.476562 -81.800781 56.4375 -82.125 L 56.4375 -84.53125 C 65.71875 -84.53125 71.921875 -84.726562 75.046875 -85.125 C 78.171875 -85.53125 81.492188 -86.253906 85.015625 -87.296875 C 88.535156 -88.335938 91.492188 -89.738281 93.890625 -91.5 C 103.335938 -97.582031 108.0625 -107.664062 108.0625 -121.75 C 108.0625 -133.4375 105.457031 -142.800781 100.25 -149.84375 C 95.050781 -156.882812 87.726562 -160.488281 78.28125 -160.65625 L 48.515625 -160.65625 L 48.515625 -17.53125 C 48.515625 -13.53125 49.992188 -10.007812 52.953125 -6.96875 C 55.910156 -3.925781 59.550781 -2.40625 63.875 -2.40625 L 66.765625 -2.40625 L 67 0 L 14.40625 0 L 14.40625 -2.40625 L 17.53125 -2.40625 C 21.53125 -2.40625 25.050781 -3.84375 28.09375 -6.71875 C 31.132812 -9.601562 32.738281 -13.128906 32.90625 -17.296875 L 32.90625 -150.5625 C 32.738281 -154.726562 31.175781 -158.289062 28.21875 -161.25 C 25.257812 -164.21875 21.695312 -165.703125 17.53125 -165.703125 L 14.40625 -165.703125 L 14.40625 -168.09375 L 79.25 -168.09375 C 93.332031 -168.09375 104.65625 -164.128906 113.21875 -156.203125 C 121.789062 -148.285156 126.078125 -137.800781 126.078125 -124.75 C 126.078125 -111.707031 122.15625 -100.5 114.3125 -91.125 C 106.46875 -81.757812 96.859375 -77.078125 85.484375 -77.078125 C 85.484375 -77.078125 85.40625 -77.078125 85.25 -77.078125 C 90.695312 -71.316406 96.859375 -64.59375 103.734375 -56.90625 C 131.429688 -26.332031 149.203125 -7.125 157.046875 0.71875 C 164.890625 8.5625 171.8125 15.003906 177.8125 20.046875 C 183.820312 25.085938 189.148438 28.8125 193.796875 31.21875 C 203.242188 36.34375 212.609375 38.90625 221.890625 38.90625 C 223.804688 38.90625 225.726562 38.742188 227.65625 38.421875 Z M 227.65625 40.828125 "/></g></g></g><g fill="#ffffff" fill-opacity="1"><g transform="translate(82.612645, 270.13705)"><g><path d="M 26.375 -58.953125 C 18.6875 -48.898438 14.84375 -38.039062 14.84375 -26.375 C 14.84375 -12.488281 20.679688 -1.703125 32.359375 5.984375 C 39.148438 10.566406 46.867188 12.859375 55.515625 12.859375 C 64.160156 12.859375 71.660156 11.15625 78.015625 7.75 C 89.984375 1.550781 96.707031 -8.863281 98.1875 -23.5 C 98.332031 -24.53125 98.40625 -25.5625 98.40625 -26.59375 C 98.40625 -32.0625 96.890625 -37.972656 93.859375 -44.328125 C 90.828125 -50.679688 85.914062 -56.515625 79.125 -61.828125 L 39.234375 -93.296875 C 30.515625 -100.097656 26.15625 -108.890625 26.15625 -119.671875 C 26.15625 -130.460938 29.625 -139.585938 36.5625 -147.046875 C 43.507812 -154.503906 52.894531 -158.234375 64.71875 -158.234375 C 70.625 -158.234375 77.050781 -157.5 84 -156.03125 L 92.859375 -156.03125 L 93.296875 -128.765625 L 91.09375 -128.765625 C 90.9375 -135.859375 88.382812 -141.4375 83.4375 -145.5 C 78.488281 -149.5625 72.285156 -151.59375 64.828125 -151.59375 C 57.367188 -151.59375 51.125 -149.117188 46.09375 -144.171875 C 41.070312 -139.222656 38.5625 -132.867188 38.5625 -125.109375 C 38.5625 -117.347656 41.8125 -110.882812 48.3125 -105.71875 L 89.3125 -73.359375 C 105.5625 -60.503906 113.6875 -44.988281 113.6875 -26.8125 C 113.6875 -13.21875 108.296875 -1.546875 97.515625 8.203125 C 88.203125 16.617188 75.789062 20.828125 60.28125 20.828125 C 50.820312 20.828125 42.398438 19.054688 35.015625 15.515625 C 21.128906 9.015625 12.78125 -2.066406 9.96875 -17.734375 C 9.53125 -20.097656 9.3125 -23.085938 9.3125 -26.703125 C 9.3125 -30.328125 10.34375 -35.273438 12.40625 -41.546875 C 14.476562 -47.828125 18.46875 -54.144531 24.375 -60.5 Z M 26.375 -58.953125 "/></g></g></g></svg>